<svg width="351" height="76" viewBox="0 0 351 76" fill="none" xmlns="http://www.w3.org/2000/svg">
<g filter="url(#filter0_b)">
<rect width="351" height="76" rx="10" fill="black" fill-opacity="0.3"/>
</g>
<path d="M21.3333 20.4583V52.5416L46.5417 36.4999L21.3333 20.4583Z" fill="white"/>
<rect x="62" y="34" width="226" height="5" rx="2.5" fill="white"/>
<rect x="97" y="34" width="191" height="5" rx="2.5" fill="#9D9D9D"/>
<circle cx="98" cy="37" r="8" fill="white"/>
<path d="M66.312 63.14C65.136 63.14 64.2867 62.7853 63.764 62.076C63.2507 61.3667 62.98 60.4333 62.952 59.276L62.938 58.114L62.952 56.924C62.98 55.7667 63.2507 54.8333 63.764 54.124C64.2867 53.4147 65.136 53.06 66.312 53.06C67.488 53.06 68.3327 53.4147 68.846 54.124C69.3687 54.8333 69.644 55.7667 69.672 56.924C69.6813 57.1853 69.686 57.582 69.686 58.114C69.686 58.6367 69.6813 59.024 69.672 59.276C69.644 60.4333 69.3687 61.3667 68.846 62.076C68.3327 62.7853 67.488 63.14 66.312 63.14ZM66.312 62.3C67.1147 62.3 67.7213 62.034 68.132 61.502C68.552 60.9607 68.7713 60.1953 68.79 59.206C68.7993 58.9353 68.804 58.562 68.804 58.086C68.804 57.61 68.7993 57.246 68.79 56.994C68.7713 56.0233 68.552 55.2673 68.132 54.726C67.7213 54.1753 67.1147 53.9 66.312 53.9C65.5093 53.9 64.898 54.1753 64.478 54.726C64.0673 55.2673 63.8527 56.0233 63.834 56.994L63.82 58.086L63.834 59.206C63.8527 60.1953 64.0673 60.9607 64.478 61.502C64.898 62.034 65.5093 62.3 66.312 62.3ZM71.6972 63C71.6039 63 71.5292 62.972 71.4732 62.916C71.4172 62.86 71.3892 62.7853 71.3892 62.692V62.02C71.3892 61.9267 71.4172 61.852 71.4732 61.796C71.5292 61.7307 71.6039 61.698 71.6972 61.698H72.3692C72.4625 61.698 72.5372 61.7307 72.5932 61.796C72.6585 61.852 72.6912 61.9267 72.6912 62.02V62.692C72.6912 62.7853 72.6585 62.86 72.5932 62.916C72.5372 62.972 72.4625 63 72.3692 63H71.6972ZM77.6231 63.14C76.9698 63.14 76.4005 63.0187 75.9151 62.776C75.4391 62.524 75.0705 62.202 74.8091 61.81C74.5571 61.418 74.4218 60.998 74.4031 60.55V60.522C74.4031 60.4473 74.4265 60.3913 74.4731 60.354C74.5291 60.3073 74.5991 60.284 74.6831 60.284H74.9491C75.0425 60.284 75.1171 60.3073 75.1731 60.354C75.2291 60.3913 75.2711 60.4753 75.2991 60.606C75.4391 61.1753 75.7238 61.6 76.1531 61.88C76.5825 62.16 77.0725 62.3 77.6231 62.3C78.3418 62.3 78.9345 62.0853 79.4011 61.656C79.8771 61.2267 80.1151 60.6293 80.1151 59.864C80.1151 59.3973 80.0031 58.9913 79.7791 58.646C79.5645 58.3007 79.2658 58.0347 78.8831 57.848C78.5005 57.6613 78.0805 57.568 77.6231 57.568C77.2498 57.568 76.9465 57.6193 76.7131 57.722C76.4891 57.8153 76.2605 57.946 76.0271 58.114C75.8871 58.2167 75.7705 58.2913 75.6771 58.338C75.5931 58.3847 75.4998 58.408 75.3971 58.408H75.1451C75.0611 58.408 74.9865 58.38 74.9211 58.324C74.8558 58.2587 74.8278 58.184 74.8371 58.1L75.2571 53.522C75.2665 53.4193 75.2945 53.34 75.3411 53.284C75.3971 53.228 75.4718 53.2 75.5651 53.2H80.1291C80.2225 53.2 80.2971 53.228 80.3531 53.284C80.4091 53.34 80.4371 53.4147 80.4371 53.508V53.732C80.4371 53.8253 80.4091 53.9 80.3531 53.956C80.2971 54.012 80.2225 54.04 80.1291 54.04H76.1111L75.8171 57.204C76.3118 56.8867 76.9138 56.728 77.6231 56.728C78.2578 56.728 78.8271 56.8493 79.3311 57.092C79.8445 57.3347 80.2505 57.694 80.5491 58.17C80.8478 58.6367 80.9971 59.2013 80.9971 59.864C80.9971 60.564 80.8478 61.1613 80.5491 61.656C80.2505 62.1507 79.8445 62.524 79.3311 62.776C78.8271 63.0187 78.2578 63.14 77.6231 63.14ZM87.3988 63C87.3055 63 87.2308 62.972 87.1748 62.916C87.1188 62.86 87.0908 62.7853 87.0908 62.692V60.48H82.4708C82.3775 60.48 82.3028 60.452 82.2468 60.396C82.1908 60.34 82.1628 60.2653 82.1628 60.172V59.948C82.1628 59.808 82.2142 59.668 82.3168 59.528L86.5728 53.438C86.6195 53.3633 86.6895 53.3073 86.7828 53.27C86.8762 53.2233 86.9788 53.2 87.0908 53.2H87.6648C87.7582 53.2 87.8328 53.228 87.8888 53.284C87.9448 53.34 87.9728 53.4147 87.9728 53.508V59.64H89.2468C89.3402 59.64 89.4148 59.668 89.4708 59.724C89.5268 59.78 89.5548 59.8547 89.5548 59.948V60.172C89.5548 60.2653 89.5268 60.34 89.4708 60.396C89.4148 60.452 89.3402 60.48 89.2468 60.48H87.9728V62.692C87.9728 62.7853 87.9448 62.86 87.8888 62.916C87.8328 62.972 87.7582 63 87.6648 63H87.3988ZM87.0908 59.64V54.194L83.2688 59.64H87.0908Z" fill="white"/>
<path d="M267.004 63.14C266.332 63.14 265.744 63.028 265.24 62.804C264.745 62.58 264.363 62.286 264.092 61.922C263.821 61.558 263.677 61.166 263.658 60.746C263.658 60.662 263.686 60.5967 263.742 60.55C263.798 60.5033 263.868 60.48 263.952 60.48H264.148C264.241 60.48 264.321 60.5033 264.386 60.55C264.451 60.5873 264.498 60.6713 264.526 60.802C264.657 61.3527 264.951 61.74 265.408 61.964C265.875 62.188 266.407 62.3 267.004 62.3C267.751 62.3 268.348 62.1227 268.796 61.768C269.244 61.4133 269.468 60.9 269.468 60.228C269.468 58.94 268.693 58.296 267.144 58.296H265.912C265.819 58.296 265.744 58.268 265.688 58.212C265.632 58.156 265.604 58.0813 265.604 57.988V57.778C265.604 57.6753 265.646 57.5633 265.73 57.442L268.614 54.04H264.386C264.293 54.04 264.218 54.012 264.162 53.956C264.106 53.9 264.078 53.8253 264.078 53.732V53.522C264.078 53.4287 264.106 53.354 264.162 53.298C264.218 53.2327 264.293 53.2 264.386 53.2H269.608C269.711 53.2 269.79 53.228 269.846 53.284C269.902 53.34 269.93 53.4193 269.93 53.522V53.732C269.93 53.816 269.893 53.9047 269.818 53.998L266.864 57.456H267.144C268.133 57.456 268.913 57.6893 269.482 58.156C270.061 58.6227 270.35 59.3133 270.35 60.228C270.35 60.8253 270.205 61.348 269.916 61.796C269.627 62.2347 269.23 62.5707 268.726 62.804C268.222 63.028 267.648 63.14 267.004 63.14ZM272.396 63C272.303 63 272.228 62.972 272.172 62.916C272.116 62.86 272.088 62.7853 272.088 62.692V62.02C272.088 61.9267 272.116 61.852 272.172 61.796C272.228 61.7307 272.303 61.698 272.396 61.698H273.068C273.162 61.698 273.236 61.7307 273.292 61.796C273.358 61.852 273.39 61.9267 273.39 62.02V62.692C273.39 62.7853 273.358 62.86 273.292 62.916C273.236 62.972 273.162 63 273.068 63H272.396ZM277.309 63C277.216 63 277.141 62.972 277.085 62.916C277.029 62.86 277.001 62.7853 277.001 62.692V54.348L274.495 56.28C274.421 56.3267 274.355 56.35 274.299 56.35C274.206 56.35 274.127 56.308 274.061 56.224L273.907 56.028C273.861 55.9627 273.837 55.8973 273.837 55.832C273.837 55.7387 273.879 55.6593 273.963 55.594L276.945 53.298C277.039 53.2327 277.16 53.2 277.309 53.2H277.575C277.669 53.2 277.743 53.228 277.799 53.284C277.855 53.34 277.883 53.4147 277.883 53.508V62.692C277.883 62.7853 277.855 62.86 277.799 62.916C277.743 62.972 277.669 63 277.575 63H277.309ZM282.943 63.14C282.29 63.14 281.721 63.0187 281.235 62.776C280.759 62.524 280.391 62.202 280.129 61.81C279.877 61.418 279.742 60.998 279.723 60.55V60.522C279.723 60.4473 279.747 60.3913 279.793 60.354C279.849 60.3073 279.919 60.284 280.003 60.284H280.269C280.363 60.284 280.437 60.3073 280.493 60.354C280.549 60.3913 280.591 60.4753 280.619 60.606C280.759 61.1753 281.044 61.6 281.473 61.88C281.903 62.16 282.393 62.3 282.943 62.3C283.662 62.3 284.255 62.0853 284.721 61.656C285.197 61.2267 285.435 60.6293 285.435 59.864C285.435 59.3973 285.323 58.9913 285.099 58.646C284.885 58.3007 284.586 58.0347 284.203 57.848C283.821 57.6613 283.401 57.568 282.943 57.568C282.57 57.568 282.267 57.6193 282.033 57.722C281.809 57.8153 281.581 57.946 281.347 58.114C281.207 58.2167 281.091 58.2913 280.997 58.338C280.913 58.3847 280.82 58.408 280.717 58.408H280.465C280.381 58.408 280.307 58.38 280.241 58.324C280.176 58.2587 280.148 58.184 280.157 58.1L280.577 53.522C280.587 53.4193 280.615 53.34 280.661 53.284C280.717 53.228 280.792 53.2 280.885 53.2H285.449C285.543 53.2 285.617 53.228 285.673 53.284C285.729 53.34 285.757 53.4147 285.757 53.508V53.732C285.757 53.8253 285.729 53.9 285.673 53.956C285.617 54.012 285.543 54.04 285.449 54.04H281.431L281.137 57.204C281.632 56.8867 282.234 56.728 282.943 56.728C283.578 56.728 284.147 56.8493 284.651 57.092C285.165 57.3347 285.571 57.694 285.869 58.17C286.168 58.6367 286.317 59.2013 286.317 59.864C286.317 60.564 286.168 61.1613 285.869 61.656C285.571 62.1507 285.165 62.524 284.651 62.776C284.147 63.0187 283.578 63.14 282.943 63.14Z" fill="white"/>
<g clip-path="url(#clip0)">
<path d="M337.815 30.5318C337.471 30.0027 336.761 29.852 336.233 30.1976L332.763 32.4553L327.575 29.4611C327.221 29.2568 326.786 29.2568 326.432 29.4611L321.208 32.4762L316.556 29.791V25.2092C316.556 24.5779 316.044 24.0659 315.413 24.0659C314.78 24.0659 314.269 24.578 314.269 25.2092V29.791L309.673 32.4436L305.795 29.7574C305.277 29.3985 304.563 29.528 304.203 30.0466C303.844 30.5659 303.973 31.2778 304.493 31.638L308.474 34.3955V40.4888C308.474 40.8973 308.691 41.2749 309.045 41.4792L314.269 44.4948V48.7906C314.269 49.4219 314.78 49.9339 315.412 49.9339C316.044 49.9339 316.556 49.4219 316.556 48.7906V44.4948L321.208 41.8091L325.86 44.4948V48.7906C325.86 49.4219 326.371 49.9339 327.003 49.9339C327.636 49.9339 328.147 49.4219 328.147 48.7906V44.4948L333.371 41.4792C333.725 41.2749 333.942 40.8972 333.942 40.4888V34.4162L337.48 32.1137C338.009 31.7692 338.159 31.0612 337.815 30.5318ZM310.761 34.4571L315.413 31.772L320.065 34.4571V39.8282L315.413 42.5139L310.761 39.8282V34.4571ZM331.655 39.8282L327.004 42.5139L322.352 39.8282V34.4571L327.004 31.772L331.655 34.4571V39.8282Z" fill="white"/>
</g>
<defs>
<filter id="filter0_b" x="-4" y="-4" width="359" height="84" filterUnits="userSpaceOnUse" color-interpolation-filters="sRGB">
<feFlood flood-opacity="0" result="BackgroundImageFix"/>
<feGaussianBlur in="BackgroundImage" stdDeviation="2"/>
<feComposite in2="SourceAlpha" operator="in" result="effect1_backgroundBlur"/>
<feBlend mode="normal" in="SourceGraphic" in2="effect1_backgroundBlur" result="shape"/>
</filter>
<clipPath id="clip0">
<rect width="34" height="34" fill="white" transform="translate(304 20)"/>
</clipPath>
</defs>
</svg>
