<svg width="276" height="47" viewBox="0 0 276 47" fill="none" xmlns="http://www.w3.org/2000/svg">
<rect y="14" width="226" height="5" rx="2.5" fill="white"/>
<rect x="35" y="14" width="191" height="5" rx="2.5" fill="#9D9D9D"/>
<circle cx="36" cy="17" r="8" fill="white"/>
<path d="M4.312 43.14C3.136 43.14 2.28667 42.7853 1.764 42.076C1.25067 41.3667 0.98 40.4333 0.952 39.276L0.938 38.114L0.952 36.924C0.98 35.7667 1.25067 34.8333 1.764 34.124C2.28667 33.4147 3.136 33.06 4.312 33.06C5.488 33.06 6.33267 33.4147 6.846 34.124C7.36867 34.8333 7.644 35.7667 7.672 36.924C7.68133 37.1853 7.686 37.582 7.686 38.114C7.686 38.6367 7.68133 39.024 7.672 39.276C7.644 40.4333 7.36867 41.3667 6.846 42.076C6.33267 42.7853 5.488 43.14 4.312 43.14ZM4.312 42.3C5.11467 42.3 5.72133 42.034 6.132 41.502C6.552 40.9607 6.77133 40.1953 6.79 39.206C6.79933 38.9353 6.804 38.562 6.804 38.086C6.804 37.61 6.79933 37.246 6.79 36.994C6.77133 36.0233 6.552 35.2673 6.132 34.726C5.72133 34.1753 5.11467 33.9 4.312 33.9C3.50933 33.9 2.898 34.1753 2.478 34.726C2.06733 35.2673 1.85267 36.0233 1.834 36.994L1.82 38.086L1.834 39.206C1.85267 40.1953 2.06733 40.9607 2.478 41.502C2.898 42.034 3.50933 42.3 4.312 42.3ZM9.69719 43C9.60385 43 9.52919 42.972 9.47319 42.916C9.41719 42.86 9.38919 42.7853 9.38919 42.692V42.02C9.38919 41.9267 9.41719 41.852 9.47319 41.796C9.52919 41.7307 9.60385 41.698 9.69719 41.698H10.3692C10.4625 41.698 10.5372 41.7307 10.5932 41.796C10.6585 41.852 10.6912 41.9267 10.6912 42.02V42.692C10.6912 42.7853 10.6585 42.86 10.5932 42.916C10.5372 42.972 10.4625 43 10.3692 43H9.69719ZM15.6231 43.14C14.9698 43.14 14.4005 43.0187 13.9151 42.776C13.4391 42.524 13.0705 42.202 12.8091 41.81C12.5571 41.418 12.4218 40.998 12.4031 40.55V40.522C12.4031 40.4473 12.4265 40.3913 12.4731 40.354C12.5291 40.3073 12.5991 40.284 12.6831 40.284H12.9491C13.0425 40.284 13.1171 40.3073 13.1731 40.354C13.2291 40.3913 13.2711 40.4753 13.2991 40.606C13.4391 41.1753 13.7238 41.6 14.1531 41.88C14.5825 42.16 15.0725 42.3 15.6231 42.3C16.3418 42.3 16.9345 42.0853 17.4011 41.656C17.8771 41.2267 18.1151 40.6293 18.1151 39.864C18.1151 39.3973 18.0031 38.9913 17.7791 38.646C17.5645 38.3007 17.2658 38.0347 16.8831 37.848C16.5005 37.6613 16.0805 37.568 15.6231 37.568C15.2498 37.568 14.9465 37.6193 14.7131 37.722C14.4891 37.8153 14.2605 37.946 14.0271 38.114C13.8871 38.2167 13.7705 38.2913 13.6771 38.338C13.5931 38.3847 13.4998 38.408 13.3971 38.408H13.1451C13.0611 38.408 12.9865 38.38 12.9211 38.324C12.8558 38.2587 12.8278 38.184 12.8371 38.1L13.2571 33.522C13.2665 33.4193 13.2945 33.34 13.3411 33.284C13.3971 33.228 13.4718 33.2 13.5651 33.2H18.1291C18.2225 33.2 18.2971 33.228 18.3531 33.284C18.4091 33.34 18.4371 33.4147 18.4371 33.508V33.732C18.4371 33.8253 18.4091 33.9 18.3531 33.956C18.2971 34.012 18.2225 34.04 18.1291 34.04H14.1111L13.8171 37.204C14.3118 36.8867 14.9138 36.728 15.6231 36.728C16.2578 36.728 16.8271 36.8493 17.3311 37.092C17.8445 37.3347 18.2505 37.694 18.5491 38.17C18.8478 38.6367 18.9971 39.2013 18.9971 39.864C18.9971 40.564 18.8478 41.1613 18.5491 41.656C18.2505 42.1507 17.8445 42.524 17.3311 42.776C16.8271 43.0187 16.2578 43.14 15.6231 43.14ZM25.3988 43C25.3055 43 25.2308 42.972 25.1748 42.916C25.1188 42.86 25.0908 42.7853 25.0908 42.692V40.48H20.4708C20.3775 40.48 20.3028 40.452 20.2468 40.396C20.1908 40.34 20.1628 40.2653 20.1628 40.172V39.948C20.1628 39.808 20.2142 39.668 20.3168 39.528L24.5728 33.438C24.6195 33.3633 24.6895 33.3073 24.7828 33.27C24.8762 33.2233 24.9788 33.2 25.0908 33.2H25.6648C25.7582 33.2 25.8328 33.228 25.8888 33.284C25.9448 33.34 25.9728 33.4147 25.9728 33.508V39.64H27.2468C27.3402 39.64 27.4148 39.668 27.4708 39.724C27.5268 39.78 27.5548 39.8547 27.5548 39.948V40.172C27.5548 40.2653 27.5268 40.34 27.4708 40.396C27.4148 40.452 27.3402 40.48 27.2468 40.48H25.9728V42.692C25.9728 42.7853 25.9448 42.86 25.8888 42.916C25.8328 42.972 25.7582 43 25.6648 43H25.3988ZM25.0908 39.64V34.194L21.2688 39.64H25.0908Z" fill="white"/>
<path d="M205.004 43.14C204.332 43.14 203.744 43.028 203.24 42.804C202.745 42.58 202.363 42.286 202.092 41.922C201.821 41.558 201.677 41.166 201.658 40.746C201.658 40.662 201.686 40.5967 201.742 40.55C201.798 40.5033 201.868 40.48 201.952 40.48H202.148C202.241 40.48 202.321 40.5033 202.386 40.55C202.451 40.5873 202.498 40.6713 202.526 40.802C202.657 41.3527 202.951 41.74 203.408 41.964C203.875 42.188 204.407 42.3 205.004 42.3C205.751 42.3 206.348 42.1227 206.796 41.768C207.244 41.4133 207.468 40.9 207.468 40.228C207.468 38.94 206.693 38.296 205.144 38.296H203.912C203.819 38.296 203.744 38.268 203.688 38.212C203.632 38.156 203.604 38.0813 203.604 37.988V37.778C203.604 37.6753 203.646 37.5633 203.73 37.442L206.614 34.04H202.386C202.293 34.04 202.218 34.012 202.162 33.956C202.106 33.9 202.078 33.8253 202.078 33.732V33.522C202.078 33.4287 202.106 33.354 202.162 33.298C202.218 33.2327 202.293 33.2 202.386 33.2H207.608C207.711 33.2 207.79 33.228 207.846 33.284C207.902 33.34 207.93 33.4193 207.93 33.522V33.732C207.93 33.816 207.893 33.9047 207.818 33.998L204.864 37.456H205.144C206.133 37.456 206.913 37.6893 207.482 38.156C208.061 38.6227 208.35 39.3133 208.35 40.228C208.35 40.8253 208.205 41.348 207.916 41.796C207.627 42.2347 207.23 42.5707 206.726 42.804C206.222 43.028 205.648 43.14 205.004 43.14ZM210.396 43C210.303 43 210.228 42.972 210.172 42.916C210.116 42.86 210.088 42.7853 210.088 42.692V42.02C210.088 41.9267 210.116 41.852 210.172 41.796C210.228 41.7307 210.303 41.698 210.396 41.698H211.068C211.162 41.698 211.236 41.7307 211.292 41.796C211.358 41.852 211.39 41.9267 211.39 42.02V42.692C211.39 42.7853 211.358 42.86 211.292 42.916C211.236 42.972 211.162 43 211.068 43H210.396ZM215.309 43C215.216 43 215.141 42.972 215.085 42.916C215.029 42.86 215.001 42.7853 215.001 42.692V34.348L212.495 36.28C212.421 36.3267 212.355 36.35 212.299 36.35C212.206 36.35 212.127 36.308 212.061 36.224L211.907 36.028C211.861 35.9627 211.837 35.8973 211.837 35.832C211.837 35.7387 211.879 35.6593 211.963 35.594L214.945 33.298C215.039 33.2327 215.16 33.2 215.309 33.2H215.575C215.669 33.2 215.743 33.228 215.799 33.284C215.855 33.34 215.883 33.4147 215.883 33.508V42.692C215.883 42.7853 215.855 42.86 215.799 42.916C215.743 42.972 215.669 43 215.575 43H215.309ZM220.943 43.14C220.29 43.14 219.721 43.0187 219.235 42.776C218.759 42.524 218.391 42.202 218.129 41.81C217.877 41.418 217.742 40.998 217.723 40.55V40.522C217.723 40.4473 217.747 40.3913 217.793 40.354C217.849 40.3073 217.919 40.284 218.003 40.284H218.269C218.363 40.284 218.437 40.3073 218.493 40.354C218.549 40.3913 218.591 40.4753 218.619 40.606C218.759 41.1753 219.044 41.6 219.473 41.88C219.903 42.16 220.393 42.3 220.943 42.3C221.662 42.3 222.255 42.0853 222.721 41.656C223.197 41.2267 223.435 40.6293 223.435 39.864C223.435 39.3973 223.323 38.9913 223.099 38.646C222.885 38.3007 222.586 38.0347 222.203 37.848C221.821 37.6613 221.401 37.568 220.943 37.568C220.57 37.568 220.267 37.6193 220.033 37.722C219.809 37.8153 219.581 37.946 219.347 38.114C219.207 38.2167 219.091 38.2913 218.997 38.338C218.913 38.3847 218.82 38.408 218.717 38.408H218.465C218.381 38.408 218.307 38.38 218.241 38.324C218.176 38.2587 218.148 38.184 218.157 38.1L218.577 33.522C218.587 33.4193 218.615 33.34 218.661 33.284C218.717 33.228 218.792 33.2 218.885 33.2H223.449C223.543 33.2 223.617 33.228 223.673 33.284C223.729 33.34 223.757 33.4147 223.757 33.508V33.732C223.757 33.8253 223.729 33.9 223.673 33.956C223.617 34.012 223.543 34.04 223.449 34.04H219.431L219.137 37.204C219.632 36.8867 220.234 36.728 220.943 36.728C221.578 36.728 222.147 36.8493 222.651 37.092C223.165 37.3347 223.571 37.694 223.869 38.17C224.168 38.6367 224.317 39.2013 224.317 39.864C224.317 40.564 224.168 41.1613 223.869 41.656C223.571 42.1507 223.165 42.524 222.651 42.776C222.147 43.0187 221.578 43.14 220.943 43.14Z" fill="white"/>
<g clip-path="url(#clip0)">
<path d="M275.815 10.5318C275.471 10.0027 274.761 9.85196 274.233 10.1976L270.763 12.4553L265.575 9.46115C265.221 9.25679 264.786 9.25679 264.432 9.46115L259.208 12.4762L254.556 9.79104V5.20922C254.556 4.57789 254.044 4.06592 253.413 4.06592C252.78 4.06592 252.269 4.57796 252.269 5.20922V9.79097L247.673 12.4436L243.795 9.75738C243.277 9.39848 242.563 9.52804 242.203 10.0466C241.844 10.5659 241.973 11.2778 242.493 11.638L246.474 14.3955V20.4888C246.474 20.8973 246.691 21.2749 247.045 21.4792L252.269 24.4948V28.7906C252.269 29.4219 252.78 29.9339 253.412 29.9339C254.044 29.9339 254.556 29.4219 254.556 28.7906V24.4948L259.208 21.8091L263.86 24.4948V28.7906C263.86 29.4219 264.371 29.9339 265.003 29.9339C265.636 29.9339 266.147 29.4219 266.147 28.7906V24.4948L271.371 21.4792C271.725 21.2749 271.942 20.8972 271.942 20.4888V14.4162L275.48 12.1137C276.009 11.7692 276.159 11.0612 275.815 10.5318ZM248.761 14.4571L253.413 11.772L258.065 14.4571V19.8282L253.413 22.5139L248.761 19.8282V14.4571ZM269.655 19.8282L265.004 22.5139L260.352 19.8282V14.4571L265.004 11.772L269.655 14.4571V19.8282Z" fill="white"/>
</g>
<defs>
<clipPath id="clip0">
<rect width="34" height="34" fill="white" transform="translate(242)"/>
</clipPath>
</defs>
</svg>
