<svg width="222" height="222" viewBox="0 0 222 222" fill="none" xmlns="http://www.w3.org/2000/svg">
<g style="mix-blend-mode:hard-light" clip-path="url(#clip0)">
<path d="M197.821 65.6793C197.571 65.6793 197.336 65.7404 197.089 65.7529C197.084 65.5948 197.068 65.4383 197.042 65.2818L190.298 43.3124C190.221 43.1372 190.129 42.9681 190.024 42.8085C193.47 40.328 195.064 36.0008 194.048 31.877C193.032 27.7533 189.613 24.6609 185.408 24.0646C181.202 23.4683 177.058 25.4872 174.935 29.1649C174.756 29.0694 174.568 28.9912 174.374 28.9302L167.557 27.5655C165.687 27.2165 163.884 28.4356 163.512 30.3011C163.138 32.165 164.332 33.9835 166.193 34.3826L173.01 35.7473C173.213 35.7864 173.42 35.8067 173.626 35.8083C173.903 37.8616 174.792 39.7834 176.176 41.3265C176.027 41.4689 175.892 41.6254 175.773 41.7944L154.704 79.204C154.624 79.3887 154.562 79.5812 154.518 79.7783C153.893 79.6578 153.259 79.5937 152.624 79.5874C150.12 79.5952 147.704 80.5123 145.824 82.1665C145.686 82.021 145.535 81.8864 145.373 81.7659L139.369 78.2587C137.716 77.3354 135.627 77.905 134.672 79.5405C133.717 81.1759 134.245 83.2745 135.861 84.262L141.866 87.7692C142.037 87.8584 142.215 87.9335 142.398 87.9914C141.527 92.303 143.485 96.6928 147.273 98.926C147.176 99.1029 147.097 99.286 147.034 99.4753L141.715 124.37C141.702 124.523 141.7 124.678 141.71 124.833C138.549 124.942 135.522 126.138 133.138 128.215C133.04 128.096 132.933 127.983 132.819 127.88L83.2073 93.1465C83.0241 93.0448 82.8332 92.9618 82.636 92.8977C83.1885 91.1793 83.237 89.3404 82.7784 87.5939C82.9647 87.5297 83.1462 87.4484 83.3184 87.3513L101.05 76.0897C101.167 75.9911 101.278 75.8846 101.382 75.7704C106.873 81.0022 115.553 80.8331 120.836 75.3932C120.933 75.4918 121.036 75.5826 121.144 75.6687L123.852 77.2509C124.927 77.9066 126.271 77.9301 127.368 77.315C128.465 76.6984 129.143 75.5372 129.141 74.279C129.14 73.0207 128.459 71.861 127.36 71.2476L124.651 69.6654C124.507 69.6043 124.359 69.5527 124.207 69.5135C125.817 64.3256 124.143 58.6807 119.966 55.2095C120.066 55.0843 120.157 54.9529 120.238 54.8151L128.652 37.9195C128.695 37.7896 128.731 37.6566 128.76 37.5204C135.174 38.9852 141.73 35.705 144.405 29.6923C144.802 29.985 145.258 30.1868 145.74 30.287L152.558 31.6517C152.784 31.6971 153.014 31.7205 153.244 31.719C155.026 31.7127 156.516 30.359 156.692 28.5843C156.865 26.8096 155.67 25.1898 153.923 24.8361L147.104 23.4699C146.616 23.3729 146.111 23.3854 145.627 23.5059C145.452 17.1348 140.963 11.7027 134.739 10.3286C128.517 8.95302 122.158 11.9907 119.316 17.6951C116.474 23.3979 117.878 30.3042 122.723 34.4452C122.617 34.5641 122.518 34.6893 122.431 34.8224L114.016 51.718C113.972 51.8479 113.936 51.9809 113.909 52.1171C111.462 51.5412 108.9 51.6883 106.535 52.5412C106.49 52.3894 106.433 52.2407 106.364 52.0983L102.635 46.228C101.607 44.6067 99.4581 44.1262 97.8368 45.156C96.2155 46.1858 95.7366 48.3345 96.7648 49.9558L100.496 55.8261C100.587 55.9513 100.685 56.0703 100.793 56.1829C97.2359 59.8575 96.0637 65.2286 97.768 70.0503C97.6161 70.0957 97.4675 70.1536 97.3251 70.2209L79.5937 81.4842C79.4325 81.6109 79.2838 81.7534 79.1508 81.9083C76.6061 79.7815 73.1725 79.0569 69.9862 79.9755C69.9252 79.7752 69.8453 79.5812 69.7483 79.3949L65.8937 73.6091C64.8201 72.0316 62.6777 71.6138 61.0892 72.6717C59.5023 73.7296 59.0641 75.8706 60.108 77.4668L63.9625 83.2526C64.0877 83.4263 64.2286 83.5891 64.382 83.7362C63.5682 84.8082 62.9703 86.0289 62.6245 87.3294C62.4304 87.284 62.2332 87.2543 62.0345 87.2418L30.6736 89.3279C30.4889 89.3608 30.3074 89.4109 30.1321 89.475C29.6547 88.3576 28.9849 87.3326 28.1539 86.4452C28.2854 86.295 28.4043 86.1338 28.5076 85.9632L31.4185 80.5514C32.3293 78.8597 31.6955 76.7516 30.0037 75.8408C28.312 74.9316 26.2039 75.5654 25.2947 77.2571L22.3822 82.6689C22.3087 82.852 22.2508 83.0414 22.2116 83.2338C21.6498 83.1306 21.0802 83.0742 20.5089 83.0633C14.7482 83.0633 10.0782 87.7332 10.0782 93.4939C10.0782 99.2547 14.7482 103.923 20.5089 103.923C21.5481 103.909 22.5794 103.737 23.5685 103.414C23.6342 103.601 23.7156 103.781 23.8142 103.951L37.3389 122.551C37.4359 122.686 37.5877 122.742 37.7004 122.858C34.4186 126.763 33.5469 132.154 35.428 136.894C37.3107 141.636 41.6426 144.96 46.7085 145.552C51.7744 146.142 56.7573 143.904 59.6791 139.725C59.7934 139.808 59.9123 139.883 60.036 139.952L82.5296 148.644C82.7252 148.697 82.924 148.733 83.1243 148.752C83.1243 148.877 83.0899 148.995 83.0899 149.122C83.0555 152.338 84.5219 155.386 87.0556 157.366C89.5909 159.346 92.904 160.03 96.0152 159.217C96.0699 159.405 96.1404 159.587 96.228 159.762L114.376 187.993C114.465 188.113 114.562 188.229 114.667 188.337C109.925 193.272 109.452 200.913 113.552 206.394C117.651 211.875 125.116 213.581 131.188 210.424C137.261 207.269 140.156 200.181 138.027 193.675C138.175 193.624 138.317 193.561 138.455 193.489L162.966 178.401C163.124 178.277 163.271 178.141 163.404 177.993C166.47 180.544 170.725 181.116 174.356 179.464C177.986 177.811 180.35 174.226 180.439 170.238C180.526 166.25 178.324 162.563 174.77 160.753C176.149 160.671 177.346 159.776 177.816 158.479L180.151 151.929C180.569 150.759 180.329 149.455 179.525 148.51C178.72 147.563 177.471 147.117 176.251 147.341C175.029 147.564 174.019 148.424 173.601 149.593L171.266 156.144C170.82 157.413 171.147 158.823 172.107 159.765C170.047 159.344 167.906 159.554 165.967 160.368C165.887 160.199 165.794 160.037 165.687 159.886L154.04 146.779C153.928 146.682 153.81 146.593 153.687 146.513C155.954 143.193 156.666 139.052 155.638 135.167C154.612 131.281 151.945 128.035 148.333 126.271C148.403 126.126 148.464 125.977 148.514 125.824L153.834 100.929C153.854 100.729 153.856 100.525 153.84 100.325C155.195 100.169 156.507 99.7445 157.696 99.0778C157.798 99.2453 157.917 99.4034 158.047 99.5505L161.823 102.959C162.74 103.813 164.049 104.108 165.244 103.727C166.441 103.347 167.34 102.352 167.595 101.123C167.851 99.8948 167.426 98.624 166.481 97.7977L162.706 94.3907C162.552 94.2811 162.39 94.1841 162.219 94.1027C162.602 93.1575 162.845 92.1621 162.939 91.1464C163.147 91.1433 163.354 91.1198 163.557 91.0776L185.077 86.1056C185.223 86.0508 185.365 85.9867 185.501 85.9131C186.788 88.414 188.805 90.4641 191.286 91.7912C191.203 91.9336 191.132 92.0807 191.074 92.2341L186.555 110.347C186.525 110.552 186.516 110.759 186.527 110.964C185.046 111.084 183.611 111.521 182.317 112.247C182.213 112.08 182.096 111.92 181.965 111.773L176.803 107.114C175.885 106.256 174.575 105.959 173.377 106.339C172.179 106.72 171.279 107.717 171.024 108.947C170.769 110.177 171.196 111.449 172.144 112.275L177.307 116.934C177.459 117.046 177.62 117.144 177.789 117.229C175.952 121.534 177.234 126.536 180.914 129.426C180.796 129.589 180.691 129.763 180.601 129.944L178.267 136.494C177.622 138.303 178.565 140.293 180.375 140.938C182.184 141.583 184.173 140.639 184.819 138.83L187.154 132.281C187.198 132.098 187.225 131.91 187.235 131.722C187.289 131.722 187.337 131.738 187.39 131.738C192.01 131.742 196.081 128.706 197.392 124.276C198.704 119.847 196.942 115.083 193.064 112.573C193.159 112.401 193.239 112.219 193.301 112.031L197.821 93.9181C197.837 93.7772 197.843 93.6348 197.841 93.4939C205.521 93.4877 211.743 87.2574 211.739 79.5765C211.732 71.897 205.502 65.6746 197.821 65.6793ZM84.9397 142.12L62.5415 133.465C62.385 133.426 62.2238 133.4 62.0626 133.384C62.8514 128.648 60.9217 123.869 57.0672 121.007L58.8012 118.28C59.5039 117.232 59.5852 115.883 59.0093 114.759C58.435 113.635 57.2941 112.911 56.0327 112.867C54.7698 112.825 53.5835 113.47 52.934 114.552L51.1938 117.288C51.056 117.54 50.9527 117.809 50.8854 118.088C48.2844 117.57 45.5895 117.836 43.1403 118.852C43.0886 118.717 43.0292 118.587 42.9619 118.462L29.4372 99.8603C29.3104 99.7226 29.1727 99.5958 29.0256 99.4816C29.7173 98.4847 30.2291 97.3751 30.5374 96.2014C30.6563 96.2311 30.7784 96.2546 30.9005 96.2718C30.9787 96.2718 31.057 96.2671 31.1352 96.264L62.4946 94.1778C62.6792 94.145 62.8608 94.0949 63.0361 94.0307C63.4242 94.9212 63.9344 95.7538 64.5541 96.5019C64.3992 96.6349 64.2567 96.7836 64.13 96.9432L60.3975 102.809C59.3661 104.43 59.8435 106.579 61.4648 107.61C63.0846 108.642 65.2333 108.164 66.2646 106.544L69.9971 100.677C70.0832 100.499 70.1552 100.314 70.21 100.123C73.1866 100.892 76.351 100.259 78.8034 98.4049C78.9286 98.5614 79.0663 98.7085 79.2181 98.84L97.7492 111.814L96.505 117.765C96.3172 118.667 96.494 119.607 96.9995 120.379C97.5035 121.15 98.2954 121.689 99.1968 121.877C99.4315 121.927 99.671 121.952 99.912 121.952C101.557 121.949 102.975 120.795 103.313 119.185L103.947 116.152L128.833 133.573C128.96 133.647 129.091 133.711 129.227 133.767C128.689 135.185 128.389 136.685 128.337 138.201C128.182 138.192 128.027 138.195 127.874 138.207L102.981 143.527C102.79 143.589 102.605 143.671 102.43 143.766C101.541 142.289 100.299 141.054 98.8134 140.176C98.9073 139.993 98.9855 139.801 99.0434 139.603L100.466 132.796C100.857 130.916 99.6522 129.074 97.7711 128.681C95.8915 128.29 94.0511 129.497 93.6583 131.376L92.2357 138.184C92.2138 138.394 92.2122 138.605 92.2326 138.816C89.6284 139.137 87.2449 140.434 85.5626 142.447C85.3654 142.317 85.1572 142.207 84.9397 142.12ZM160.49 164.501C160.64 164.634 160.803 164.753 160.976 164.856C159.651 167.092 159.247 169.756 159.853 172.285C159.67 172.335 159.491 172.399 159.319 172.481L134.808 187.57C134.703 187.656 134.603 187.75 134.509 187.85C133.708 187.087 132.819 186.423 131.861 185.871C131.944 185.728 132.015 185.58 132.076 185.428L134.284 177.917L135.719 173.039C136.261 171.197 135.206 169.265 133.364 168.723C131.522 168.18 129.589 169.235 129.047 171.077L127.087 177.745L125.401 183.464C125.376 183.623 125.362 183.783 125.359 183.944C125.174 183.936 124.999 183.888 124.809 183.888C123.306 183.907 121.814 184.171 120.395 184.67C120.349 184.52 120.291 184.373 120.224 184.231L102.075 156C101.95 155.845 101.81 155.701 101.659 155.571C102.843 154.08 103.591 152.288 103.82 150.396C104.026 150.394 104.231 150.372 104.433 150.33L129.326 145.01C129.478 144.959 129.625 144.895 129.767 144.819C130.963 147.237 132.836 149.255 135.159 150.626C135.073 150.765 134.996 150.909 134.93 151.061L132.969 157.732C132.71 158.616 132.811 159.568 133.253 160.379C133.696 161.188 134.44 161.789 135.326 162.047C135.644 162.142 135.974 162.191 136.307 162.189C137.849 162.189 139.206 161.174 139.641 159.695L141.602 153.023C141.627 152.864 141.641 152.704 141.644 152.543C141.83 152.551 142.006 152.599 142.193 152.599C144.428 152.583 146.625 152.025 148.596 150.97C148.668 151.117 148.751 151.261 148.843 151.397L160.49 164.501ZM183.943 79.3151C183.799 79.3104 183.656 79.3151 183.514 79.3292L161.994 84.3012C161.811 84.3653 161.634 84.4452 161.465 84.5406C161.147 84.0351 160.787 83.5562 160.388 83.1118C160.529 82.9568 160.656 82.791 160.765 82.6125L181.835 45.2029C181.915 45.0183 181.977 44.8258 182.021 44.6286C182.542 44.7209 183.068 44.7741 183.595 44.7867C183.598 44.9776 183.617 45.1685 183.652 45.3563L190.397 67.3257C190.458 67.4728 190.528 67.6152 190.608 67.7514C186.552 70.21 184.037 74.5732 183.943 79.3151Z" fill="#A7CAFF"/>
<path d="M96.9589 30.1132C97.0465 30.1132 97.1373 30.1101 97.2281 30.1023L117.927 28.5138V25.0364L117.626 21.5699L96.6975 23.1694C96.5097 23.2054 96.3266 23.257 96.1482 23.3243C94.1967 18.7749 89.3155 16.2239 84.4655 17.2193C79.6156 18.2162 76.1351 22.4855 76.1367 27.4355C76.1507 27.9019 76.1977 28.3683 76.2759 28.8284C76.0772 28.8628 75.8816 28.9144 75.6938 28.9833L55.7025 38.9617C55.5711 39.0493 55.4459 39.1464 55.3301 39.2528C51.9779 35.3262 46.7211 33.5891 41.6896 34.744C36.6581 35.899 32.6862 39.7552 31.381 44.7491C30.0774 49.7445 31.658 55.0498 35.4828 58.5179C35.3717 58.6321 35.27 58.7557 35.1777 58.8856L31.8834 65.011C30.9725 66.7012 31.6063 68.8108 33.2981 69.7201C34.9899 70.6293 37.0979 69.9955 38.0072 68.3038L41.303 62.1784C41.3578 62.0328 41.4032 61.8842 41.4376 61.7324C44.0919 62.471 46.9135 62.3364 49.4848 61.3505C49.5365 61.5054 49.5975 61.6557 49.6695 61.8012L52.3957 65.8937C53.4599 67.4915 55.6196 67.9235 57.2175 66.8593C58.8169 65.7935 59.2488 63.6338 58.1831 62.036L55.4584 57.9451C55.3536 57.8214 55.2377 57.7072 55.1141 57.6023C58.1878 54.2939 59.421 49.6772 58.4053 45.278C58.543 45.2561 58.6776 45.2232 58.8122 45.1826L78.8034 35.2042C78.9615 35.1024 79.1101 34.9851 79.2479 34.8567C81.7972 37.4218 85.5141 38.4453 89.0181 37.5454C89.0729 37.7379 89.1449 37.9241 89.2341 38.1025L89.3123 38.2246C89.9305 39.2011 91.0072 39.7927 92.1637 39.7896C93.4517 39.7896 94.6364 39.0838 95.2483 37.9492C95.8618 36.8161 95.8024 35.4373 95.095 34.3606C94.9682 34.201 94.8274 34.0555 94.674 33.924C95.5926 32.7831 96.2578 31.4623 96.6287 30.0459C96.7367 30.0741 96.8478 30.096 96.9589 30.1132Z" fill="#A7CAFF"/>
<path d="M102.17 90.544L100.757 97.3501C100.366 99.2313 101.572 101.072 103.452 101.463C103.687 101.508 103.925 101.532 104.164 101.532C105.81 101.53 107.23 100.374 107.565 98.7618L108.978 91.9541C109.255 90.7287 108.85 89.4485 107.915 88.6065C106.983 87.7646 105.668 87.4923 104.477 87.8929C103.286 88.2935 102.405 89.3061 102.17 90.5409V90.544Z" fill="#A7CAFF"/>
</g>
<g style="mix-blend-mode:hard-light" clip-path="url(#clip1)" filter="url(#filter0_f)">
<path d="M197.821 65.6793C197.571 65.6793 197.336 65.7404 197.089 65.7529C197.084 65.5948 197.068 65.4383 197.042 65.2818L190.298 43.3124C190.221 43.1372 190.129 42.9681 190.024 42.8085C193.47 40.328 195.064 36.0008 194.048 31.877C193.032 27.7533 189.613 24.6609 185.408 24.0646C181.202 23.4683 177.058 25.4872 174.935 29.1649C174.756 29.0694 174.568 28.9912 174.374 28.9302L167.557 27.5655C165.687 27.2165 163.884 28.4356 163.512 30.3011C163.138 32.165 164.332 33.9835 166.193 34.3826L173.01 35.7473C173.213 35.7864 173.42 35.8067 173.626 35.8083C173.903 37.8616 174.792 39.7834 176.176 41.3265C176.027 41.4689 175.892 41.6254 175.773 41.7944L154.704 79.204C154.624 79.3887 154.562 79.5812 154.518 79.7783C153.893 79.6578 153.259 79.5937 152.624 79.5874C150.12 79.5952 147.704 80.5123 145.824 82.1665C145.686 82.021 145.535 81.8864 145.373 81.7659L139.369 78.2587C137.716 77.3354 135.627 77.905 134.672 79.5405C133.717 81.1759 134.245 83.2745 135.861 84.262L141.866 87.7692C142.037 87.8584 142.215 87.9335 142.398 87.9914C141.527 92.303 143.485 96.6928 147.273 98.926C147.176 99.1029 147.097 99.286 147.034 99.4753L141.715 124.37C141.702 124.523 141.7 124.678 141.71 124.833C138.549 124.942 135.522 126.138 133.138 128.215C133.04 128.096 132.933 127.983 132.819 127.88L83.2073 93.1465C83.0241 93.0448 82.8332 92.9618 82.636 92.8977C83.1885 91.1793 83.237 89.3404 82.7784 87.5939C82.9647 87.5297 83.1462 87.4484 83.3184 87.3513L101.05 76.0897C101.167 75.9911 101.278 75.8846 101.382 75.7704C106.873 81.0022 115.553 80.8331 120.836 75.3932C120.933 75.4918 121.036 75.5826 121.144 75.6687L123.852 77.2509C124.927 77.9066 126.271 77.9301 127.368 77.315C128.465 76.6984 129.143 75.5372 129.141 74.279C129.14 73.0207 128.459 71.861 127.36 71.2476L124.651 69.6654C124.507 69.6043 124.359 69.5527 124.207 69.5135C125.817 64.3256 124.143 58.6807 119.966 55.2095C120.066 55.0843 120.157 54.9529 120.238 54.8151L128.652 37.9195C128.695 37.7896 128.731 37.6566 128.76 37.5204C135.174 38.9852 141.73 35.705 144.405 29.6923C144.802 29.985 145.258 30.1868 145.74 30.287L152.558 31.6517C152.784 31.6971 153.014 31.7205 153.244 31.719C155.026 31.7127 156.516 30.359 156.692 28.5843C156.865 26.8096 155.67 25.1898 153.923 24.8361L147.104 23.4699C146.616 23.3729 146.111 23.3854 145.627 23.5059C145.452 17.1348 140.963 11.7027 134.739 10.3286C128.517 8.95302 122.158 11.9907 119.316 17.6951C116.474 23.3979 117.878 30.3042 122.723 34.4452C122.617 34.5641 122.518 34.6893 122.431 34.8224L114.016 51.718C113.972 51.8479 113.936 51.9809 113.909 52.1171C111.462 51.5412 108.9 51.6883 106.535 52.5412C106.49 52.3894 106.433 52.2407 106.364 52.0983L102.635 46.228C101.607 44.6067 99.4581 44.1262 97.8368 45.156C96.2155 46.1858 95.7366 48.3345 96.7648 49.9558L100.496 55.8261C100.587 55.9513 100.685 56.0703 100.793 56.1829C97.2359 59.8575 96.0637 65.2286 97.768 70.0503C97.6161 70.0957 97.4675 70.1536 97.3251 70.2209L79.5937 81.4842C79.4325 81.6109 79.2838 81.7534 79.1508 81.9083C76.6061 79.7815 73.1725 79.0569 69.9862 79.9755C69.9252 79.7752 69.8453 79.5812 69.7483 79.3949L65.8937 73.6091C64.8201 72.0316 62.6777 71.6138 61.0892 72.6717C59.5023 73.7296 59.0641 75.8706 60.108 77.4668L63.9625 83.2526C64.0877 83.4263 64.2286 83.5891 64.382 83.7362C63.5682 84.8082 62.9703 86.0289 62.6245 87.3294C62.4304 87.284 62.2332 87.2543 62.0345 87.2418L30.6736 89.3279C30.4889 89.3608 30.3074 89.4109 30.1321 89.475C29.6547 88.3576 28.9849 87.3326 28.1539 86.4452C28.2854 86.295 28.4043 86.1338 28.5076 85.9632L31.4185 80.5514C32.3293 78.8597 31.6955 76.7516 30.0037 75.8408C28.312 74.9316 26.2039 75.5654 25.2947 77.2571L22.3822 82.6689C22.3087 82.852 22.2508 83.0414 22.2116 83.2338C21.6498 83.1306 21.0802 83.0742 20.5089 83.0633C14.7482 83.0633 10.0782 87.7332 10.0782 93.4939C10.0782 99.2547 14.7482 103.923 20.5089 103.923C21.5481 103.909 22.5794 103.737 23.5685 103.414C23.6342 103.601 23.7156 103.781 23.8142 103.951L37.3389 122.551C37.4359 122.686 37.5877 122.742 37.7004 122.858C34.4186 126.763 33.5469 132.154 35.428 136.894C37.3107 141.636 41.6426 144.96 46.7085 145.552C51.7744 146.142 56.7573 143.904 59.6791 139.725C59.7934 139.808 59.9123 139.883 60.036 139.952L82.5296 148.644C82.7252 148.697 82.924 148.733 83.1243 148.752C83.1243 148.877 83.0899 148.995 83.0899 149.122C83.0555 152.338 84.5219 155.386 87.0556 157.366C89.5909 159.346 92.904 160.03 96.0152 159.217C96.0699 159.405 96.1404 159.587 96.228 159.762L114.376 187.993C114.465 188.113 114.562 188.229 114.667 188.337C109.925 193.272 109.452 200.913 113.552 206.394C117.651 211.875 125.116 213.581 131.188 210.424C137.261 207.269 140.156 200.181 138.027 193.675C138.175 193.624 138.317 193.561 138.455 193.489L162.966 178.401C163.124 178.277 163.271 178.141 163.404 177.993C166.47 180.544 170.725 181.116 174.356 179.464C177.986 177.811 180.35 174.226 180.439 170.238C180.526 166.25 178.324 162.563 174.77 160.753C176.149 160.671 177.346 159.776 177.816 158.479L180.151 151.929C180.569 150.759 180.329 149.455 179.525 148.51C178.72 147.563 177.471 147.117 176.251 147.341C175.029 147.564 174.019 148.424 173.601 149.593L171.266 156.144C170.82 157.413 171.147 158.823 172.107 159.765C170.047 159.344 167.906 159.554 165.967 160.368C165.887 160.199 165.794 160.037 165.687 159.886L154.04 146.779C153.928 146.682 153.81 146.593 153.687 146.513C155.954 143.193 156.666 139.052 155.638 135.167C154.612 131.281 151.945 128.035 148.333 126.271C148.403 126.126 148.464 125.977 148.514 125.824L153.834 100.929C153.854 100.729 153.856 100.525 153.84 100.325C155.195 100.169 156.507 99.7445 157.696 99.0778C157.798 99.2453 157.917 99.4034 158.047 99.5505L161.823 102.959C162.74 103.813 164.049 104.108 165.244 103.727C166.441 103.347 167.34 102.352 167.595 101.123C167.851 99.8948 167.426 98.624 166.481 97.7977L162.706 94.3907C162.552 94.2811 162.39 94.1841 162.219 94.1027C162.602 93.1575 162.845 92.1621 162.939 91.1464C163.147 91.1433 163.354 91.1198 163.557 91.0776L185.077 86.1056C185.223 86.0508 185.365 85.9867 185.501 85.9131C186.788 88.414 188.805 90.4641 191.286 91.7912C191.203 91.9336 191.132 92.0807 191.074 92.2341L186.555 110.347C186.525 110.552 186.516 110.759 186.527 110.964C185.046 111.084 183.611 111.521 182.317 112.247C182.213 112.08 182.096 111.92 181.965 111.773L176.803 107.114C175.885 106.256 174.575 105.959 173.377 106.339C172.179 106.72 171.279 107.717 171.024 108.947C170.769 110.177 171.196 111.449 172.144 112.275L177.307 116.934C177.459 117.046 177.62 117.144 177.789 117.229C175.952 121.534 177.234 126.536 180.914 129.426C180.796 129.589 180.691 129.763 180.601 129.944L178.267 136.494C177.622 138.303 178.565 140.293 180.375 140.938C182.184 141.583 184.173 140.639 184.819 138.83L187.154 132.281C187.198 132.098 187.225 131.91 187.235 131.722C187.289 131.722 187.337 131.738 187.39 131.738C192.01 131.742 196.081 128.706 197.392 124.276C198.704 119.847 196.942 115.083 193.064 112.573C193.159 112.401 193.239 112.219 193.301 112.031L197.821 93.9181C197.837 93.7772 197.843 93.6348 197.841 93.4939C205.521 93.4877 211.743 87.2574 211.739 79.5765C211.732 71.897 205.502 65.6746 197.821 65.6793ZM84.9397 142.12L62.5415 133.465C62.385 133.426 62.2238 133.4 62.0626 133.384C62.8514 128.648 60.9217 123.869 57.0672 121.007L58.8012 118.28C59.5039 117.232 59.5852 115.883 59.0093 114.759C58.435 113.635 57.2941 112.911 56.0327 112.867C54.7698 112.825 53.5835 113.47 52.934 114.552L51.1938 117.288C51.056 117.54 50.9527 117.809 50.8854 118.088C48.2844 117.57 45.5895 117.836 43.1403 118.852C43.0886 118.717 43.0292 118.587 42.9619 118.462L29.4372 99.8603C29.3104 99.7226 29.1727 99.5958 29.0256 99.4816C29.7173 98.4847 30.2291 97.3751 30.5374 96.2014C30.6563 96.2311 30.7784 96.2546 30.9005 96.2718C30.9787 96.2718 31.057 96.2671 31.1352 96.264L62.4946 94.1778C62.6792 94.145 62.8608 94.0949 63.0361 94.0307C63.4242 94.9212 63.9344 95.7538 64.5541 96.5019C64.3992 96.6349 64.2567 96.7836 64.13 96.9432L60.3975 102.809C59.3661 104.43 59.8435 106.579 61.4648 107.61C63.0846 108.642 65.2333 108.164 66.2646 106.544L69.9971 100.677C70.0832 100.499 70.1552 100.314 70.21 100.123C73.1866 100.892 76.351 100.259 78.8034 98.4049C78.9286 98.5614 79.0663 98.7085 79.2181 98.84L97.7492 111.814L96.505 117.765C96.3172 118.667 96.494 119.607 96.9995 120.379C97.5035 121.15 98.2954 121.689 99.1968 121.877C99.4315 121.927 99.671 121.952 99.912 121.952C101.557 121.949 102.975 120.795 103.313 119.185L103.947 116.152L128.833 133.573C128.96 133.647 129.091 133.711 129.227 133.767C128.689 135.185 128.389 136.685 128.337 138.201C128.182 138.192 128.027 138.195 127.874 138.207L102.981 143.527C102.79 143.589 102.605 143.671 102.43 143.766C101.541 142.289 100.299 141.054 98.8134 140.176C98.9073 139.993 98.9855 139.801 99.0434 139.603L100.466 132.796C100.857 130.916 99.6522 129.074 97.7711 128.681C95.8915 128.29 94.0511 129.497 93.6583 131.376L92.2357 138.184C92.2138 138.394 92.2122 138.605 92.2326 138.816C89.6284 139.137 87.2449 140.434 85.5626 142.447C85.3654 142.317 85.1572 142.207 84.9397 142.12ZM160.49 164.501C160.64 164.634 160.803 164.753 160.976 164.856C159.651 167.092 159.247 169.756 159.853 172.285C159.67 172.335 159.491 172.399 159.319 172.481L134.808 187.57C134.703 187.656 134.603 187.75 134.509 187.85C133.708 187.087 132.819 186.423 131.861 185.871C131.944 185.728 132.015 185.58 132.076 185.428L134.284 177.917L135.719 173.039C136.261 171.197 135.206 169.265 133.364 168.723C131.522 168.18 129.589 169.235 129.047 171.077L127.087 177.745L125.401 183.464C125.376 183.623 125.362 183.783 125.359 183.944C125.174 183.936 124.999 183.888 124.809 183.888C123.306 183.907 121.814 184.171 120.395 184.67C120.349 184.52 120.291 184.373 120.224 184.231L102.075 156C101.95 155.845 101.81 155.701 101.659 155.571C102.843 154.08 103.591 152.288 103.82 150.396C104.026 150.394 104.231 150.372 104.433 150.33L129.326 145.01C129.478 144.959 129.625 144.895 129.767 144.819C130.963 147.237 132.836 149.255 135.159 150.626C135.073 150.765 134.996 150.909 134.93 151.061L132.969 157.732C132.71 158.616 132.811 159.568 133.253 160.379C133.696 161.188 134.44 161.789 135.326 162.047C135.644 162.142 135.974 162.191 136.307 162.189C137.849 162.189 139.206 161.174 139.641 159.695L141.602 153.023C141.627 152.864 141.641 152.704 141.644 152.543C141.83 152.551 142.006 152.599 142.193 152.599C144.428 152.583 146.625 152.025 148.596 150.97C148.668 151.117 148.751 151.261 148.843 151.397L160.49 164.501ZM183.943 79.3151C183.799 79.3104 183.656 79.3151 183.514 79.3292L161.994 84.3012C161.811 84.3653 161.634 84.4452 161.465 84.5406C161.147 84.0351 160.787 83.5562 160.388 83.1118C160.529 82.9568 160.656 82.791 160.765 82.6125L181.835 45.2029C181.915 45.0183 181.977 44.8258 182.021 44.6286C182.542 44.7209 183.068 44.7741 183.595 44.7867C183.598 44.9776 183.617 45.1685 183.652 45.3563L190.397 67.3257C190.458 67.4728 190.528 67.6152 190.608 67.7514C186.552 70.21 184.037 74.5732 183.943 79.3151Z" fill="#A7CAFF" fill-opacity="0.6"/>
<path d="M96.9589 30.1132C97.0465 30.1132 97.1373 30.1101 97.2281 30.1023L117.927 28.5138V25.0364L117.626 21.5699L96.6975 23.1694C96.5097 23.2054 96.3266 23.257 96.1482 23.3243C94.1967 18.7749 89.3155 16.2239 84.4655 17.2193C79.6156 18.2162 76.1351 22.4855 76.1367 27.4355C76.1507 27.9019 76.1977 28.3683 76.2759 28.8284C76.0772 28.8628 75.8816 28.9144 75.6938 28.9833L55.7025 38.9617C55.5711 39.0493 55.4459 39.1464 55.3301 39.2528C51.9779 35.3262 46.7211 33.5891 41.6896 34.744C36.6581 35.899 32.6862 39.7552 31.381 44.7491C30.0774 49.7445 31.658 55.0498 35.4828 58.5179C35.3717 58.6321 35.27 58.7557 35.1777 58.8856L31.8834 65.011C30.9725 66.7012 31.6063 68.8108 33.2981 69.7201C34.9899 70.6293 37.0979 69.9955 38.0072 68.3038L41.303 62.1784C41.3578 62.0328 41.4032 61.8842 41.4376 61.7324C44.0919 62.471 46.9135 62.3364 49.4848 61.3505C49.5365 61.5054 49.5975 61.6557 49.6695 61.8012L52.3957 65.8937C53.4599 67.4915 55.6196 67.9235 57.2175 66.8593C58.8169 65.7935 59.2488 63.6338 58.1831 62.036L55.4584 57.9451C55.3536 57.8214 55.2377 57.7072 55.1141 57.6023C58.1878 54.2939 59.421 49.6772 58.4053 45.278C58.543 45.2561 58.6776 45.2232 58.8122 45.1826L78.8034 35.2042C78.9615 35.1024 79.1101 34.9851 79.2479 34.8567C81.7972 37.4218 85.5141 38.4453 89.0181 37.5454C89.0729 37.7379 89.1449 37.9241 89.2341 38.1025L89.3123 38.2246C89.9305 39.2011 91.0072 39.7927 92.1637 39.7896C93.4517 39.7896 94.6364 39.0838 95.2483 37.9492C95.8618 36.8161 95.8024 35.4373 95.095 34.3606C94.9682 34.201 94.8274 34.0555 94.674 33.924C95.5926 32.7831 96.2578 31.4623 96.6287 30.0459C96.7367 30.0741 96.8478 30.096 96.9589 30.1132Z" fill="#A7CAFF" fill-opacity="0.6"/>
<path d="M102.17 90.544L100.757 97.3501C100.366 99.2313 101.572 101.072 103.452 101.463C103.687 101.508 103.925 101.532 104.164 101.532C105.81 101.53 107.23 100.374 107.565 98.7618L108.978 91.9541C109.255 90.7287 108.85 89.4485 107.915 88.6065C106.983 87.7646 105.668 87.4923 104.477 87.8929C103.286 88.2935 102.405 89.3061 102.17 90.5409V90.544Z" fill="#A7CAFF" fill-opacity="0.6"/>
</g>
<defs>
<filter id="filter0_f" x="0" y="0" width="222" height="222" filterUnits="userSpaceOnUse" color-interpolation-filters="sRGB">
<feFlood flood-opacity="0" result="BackgroundImageFix"/>
<feBlend mode="normal" in="SourceGraphic" in2="BackgroundImageFix" result="shape"/>
<feGaussianBlur stdDeviation="5" result="effect1_foregroundBlur"/>
</filter>
<clipPath id="clip0">
<rect width="202" height="202" fill="white" transform="translate(10 10)"/>
</clipPath>
<clipPath id="clip1">
<rect width="202" height="202" fill="white" transform="translate(10 10)"/>
</clipPath>
</defs>
</svg>
