<svg width="202" height="202" viewBox="0 0 202 202" fill="none" xmlns="http://www.w3.org/2000/svg">
<g style="opacity: 0.5;" clip-path="url(#clip0)">
<path d="M187.821 55.6793C187.571 55.6793 187.336 55.7404 187.089 55.7529C187.084 55.5948 187.068 55.4383 187.042 55.2818L180.298 33.3124C180.221 33.1372 180.129 32.9681 180.024 32.8085C183.47 30.328 185.064 26.0008 184.048 21.877C183.032 17.7533 179.613 14.6609 175.408 14.0646C171.202 13.4683 167.058 15.4872 164.935 19.1649C164.756 19.0694 164.568 18.9912 164.374 18.9302L157.557 17.5655C155.687 17.2165 153.884 18.4356 153.512 20.3011C153.138 22.165 154.332 23.9835 156.193 24.3826L163.01 25.7473C163.213 25.7864 163.42 25.8067 163.626 25.8083C163.903 27.8616 164.792 29.7834 166.176 31.3265C166.027 31.4689 165.892 31.6254 165.773 31.7944L144.704 69.204C144.624 69.3887 144.562 69.5812 144.518 69.7783C143.893 69.6578 143.259 69.5937 142.624 69.5874C140.12 69.5952 137.704 70.5123 135.824 72.1665C135.686 72.021 135.535 71.8864 135.373 71.7659L129.369 68.2587C127.716 67.3354 125.627 67.905 124.672 69.5405C123.717 71.1759 124.245 73.2745 125.861 74.262L131.866 77.7692C132.037 77.8584 132.215 77.9335 132.398 77.9914C131.527 82.303 133.485 86.6928 137.273 88.926C137.176 89.1029 137.097 89.286 137.034 89.4753L131.715 114.37C131.702 114.523 131.7 114.678 131.71 114.833C128.549 114.942 125.522 116.138 123.138 118.215C123.04 118.096 122.933 117.983 122.819 117.88L73.2073 83.1465C73.0241 83.0448 72.8332 82.9618 72.636 82.8977C73.1885 81.1793 73.237 79.3404 72.7784 77.5939C72.9647 77.5297 73.1462 77.4484 73.3184 77.3513L91.0497 66.0897C91.1671 65.9911 91.2782 65.8846 91.3815 65.7704C96.8731 71.0022 105.553 70.8331 110.836 65.3932C110.933 65.4918 111.036 65.5826 111.144 65.6687L113.852 67.2509C114.927 67.9066 116.271 67.9301 117.368 67.315C118.465 66.6984 119.143 65.5372 119.141 64.279C119.14 63.0207 118.459 61.861 117.36 61.2476L114.651 59.6654C114.507 59.6043 114.359 59.5527 114.207 59.5135C115.817 54.3256 114.143 48.6807 109.966 45.2095C110.066 45.0843 110.157 44.9529 110.238 44.8151L118.652 27.9195C118.695 27.7896 118.731 27.6566 118.76 27.5204C125.174 28.9852 131.73 25.705 134.405 19.6923C134.802 19.985 135.258 20.1868 135.74 20.287L142.558 21.6517C142.784 21.6971 143.014 21.7205 143.244 21.719C145.026 21.7127 146.516 20.359 146.692 18.5843C146.865 16.8096 145.67 15.1898 143.923 14.8361L137.104 13.4699C136.616 13.3729 136.111 13.3854 135.627 13.5059C135.452 7.1348 130.963 1.70271 124.739 0.32865C118.517 -1.04698 112.158 1.99067 109.316 7.69507C106.474 13.3979 107.878 20.3042 112.723 24.4452C112.617 24.5641 112.518 24.6893 112.431 24.8224L104.016 41.718C103.972 41.8479 103.936 41.9809 103.909 42.1171C101.462 41.5412 98.8997 41.6883 96.535 42.5412C96.4897 42.3894 96.4333 42.2407 96.3645 42.0983L92.6351 36.228C91.6069 34.6067 89.4581 34.1262 87.8368 35.156C86.2155 36.1858 85.7366 38.3345 86.7648 39.9558L90.4957 45.8261C90.5865 45.9513 90.6851 46.0703 90.7931 46.1829C87.2359 49.8575 86.0637 55.2286 87.768 60.0503C87.6161 60.0957 87.4675 60.1536 87.3251 60.2209L69.5937 71.4842C69.4325 71.6109 69.2838 71.7534 69.1508 71.9083C66.6061 69.7815 63.1725 69.0569 59.9862 69.9755C59.9252 69.7752 59.8453 69.5812 59.7483 69.3949L55.8937 63.6091C54.8201 62.0316 52.6777 61.6138 51.0892 62.6717C49.5023 63.7296 49.0641 65.8706 50.108 67.4668L53.9625 73.2526C54.0877 73.4263 54.2286 73.5891 54.382 73.7362C53.5682 74.8082 52.9703 76.0289 52.6245 77.3294C52.4304 77.284 52.2332 77.2543 52.0345 77.2418L20.6736 79.3279C20.4889 79.3608 20.3074 79.4109 20.1321 79.475C19.6547 78.3576 18.9849 77.3326 18.1539 76.4452C18.2854 76.295 18.4043 76.1338 18.5076 75.9632L21.4185 70.5514C22.3293 68.8597 21.6955 66.7516 20.0037 65.8408C18.312 64.9316 16.2039 65.5654 15.2947 67.2571L12.3822 72.6689C12.3087 72.852 12.2508 73.0414 12.2116 73.2338C11.6498 73.1306 11.0802 73.0742 10.5089 73.0633C4.74819 73.0633 0.0782471 77.7332 0.0782471 83.4939C0.0782471 89.2547 4.74819 93.923 10.5089 93.923C11.5481 93.909 12.5794 93.7368 13.5685 93.4144C13.6342 93.6007 13.7156 93.7806 13.8142 93.9512L27.3389 112.551C27.4359 112.686 27.5877 112.742 27.7004 112.858C24.4186 116.763 23.5469 122.154 25.428 126.894C27.3107 131.636 31.6426 134.96 36.7085 135.552C41.7744 136.142 46.7573 133.904 49.6791 129.725C49.7934 129.808 49.9123 129.883 50.036 129.952L72.5296 138.644C72.7252 138.697 72.924 138.733 73.1243 138.752C73.1243 138.877 73.0899 138.995 73.0899 139.122C73.0555 142.338 74.5219 145.386 77.0556 147.366C79.5909 149.346 82.904 150.03 86.0152 149.217C86.0699 149.405 86.1404 149.587 86.228 149.762L104.376 177.993C104.465 178.113 104.562 178.229 104.667 178.337C99.9248 183.272 99.4522 190.913 103.552 196.394C107.651 201.875 115.116 203.581 121.188 200.424C127.261 197.269 130.156 190.181 128.027 183.675C128.175 183.624 128.317 183.561 128.455 183.489L152.966 168.401C153.124 168.277 153.271 168.141 153.404 167.993C156.47 170.544 160.725 171.116 164.356 169.464C167.986 167.811 170.35 164.226 170.439 160.238C170.526 156.25 168.324 152.563 164.77 150.753C166.149 150.671 167.346 149.776 167.816 148.479L170.151 141.929C170.569 140.759 170.329 139.455 169.525 138.51C168.72 137.563 167.471 137.117 166.251 137.341C165.029 137.564 164.019 138.424 163.601 139.593L161.266 146.144C160.82 147.413 161.147 148.823 162.107 149.765C160.047 149.344 157.906 149.554 155.967 150.368C155.887 150.199 155.794 150.037 155.687 149.886L144.04 136.779C143.928 136.682 143.81 136.593 143.687 136.513C145.954 133.193 146.666 129.052 145.638 125.167C144.612 121.281 141.945 118.035 138.333 116.271C138.403 116.126 138.464 115.977 138.514 115.824L143.834 90.9292C143.854 90.7289 143.856 90.5255 143.84 90.3251C145.195 90.1686 146.507 89.7445 147.696 89.0778C147.798 89.2453 147.917 89.4034 148.047 89.5505L151.823 92.959C152.74 93.8135 154.049 94.1077 155.244 93.7274C156.441 93.3471 157.34 92.3518 157.595 91.1233C157.851 89.8948 157.426 88.624 156.481 87.7977L152.706 84.3907C152.552 84.2811 152.39 84.1841 152.219 84.1027C152.602 83.1575 152.845 82.1621 152.939 81.1464C153.147 81.1433 153.354 81.1198 153.557 81.0776L175.077 76.1056C175.223 76.0508 175.365 75.9867 175.501 75.9131C176.788 78.414 178.805 80.4641 181.286 81.7912C181.203 81.9336 181.132 82.0807 181.074 82.2341L176.555 100.347C176.525 100.552 176.516 100.759 176.527 100.964C175.046 101.084 173.611 101.521 172.317 102.247C172.213 102.08 172.096 101.92 171.965 101.773L166.803 97.1141C165.885 96.2565 164.575 95.9591 163.377 96.3394C162.179 96.7197 161.279 97.7166 161.024 98.9467C160.769 100.177 161.196 101.449 162.144 102.275L167.307 106.934C167.459 107.046 167.62 107.144 167.789 107.229C165.952 111.534 167.234 116.536 170.914 119.426C170.796 119.589 170.691 119.763 170.601 119.944L168.267 126.494C167.622 128.303 168.565 130.293 170.375 130.938C172.184 131.583 174.173 130.639 174.819 128.83L177.154 122.281C177.198 122.098 177.225 121.91 177.235 121.722C177.289 121.722 177.337 121.738 177.39 121.738C182.01 121.742 186.081 118.706 187.392 114.276C188.704 109.847 186.942 105.083 183.064 102.573C183.159 102.401 183.239 102.219 183.301 102.031L187.821 83.9181C187.837 83.7772 187.843 83.6348 187.841 83.4939C195.521 83.4877 201.743 77.2574 201.739 69.5765C201.732 61.897 195.502 55.6746 187.821 55.6793ZM74.9397 132.12L52.5415 123.465C52.385 123.426 52.2238 123.4 52.0626 123.384C52.8514 118.648 50.9217 113.869 47.0672 111.007L48.8012 108.28C49.5039 107.232 49.5852 105.883 49.0093 104.759C48.435 103.635 47.2941 102.911 46.0327 102.867C44.7698 102.825 43.5835 103.47 42.934 104.552L41.1938 107.288C41.056 107.54 40.9527 107.809 40.8854 108.088C38.2844 107.57 35.5895 107.836 33.1403 108.852C33.0886 108.717 33.0292 108.587 32.9619 108.462L19.4372 89.8603C19.3104 89.7226 19.1727 89.5958 19.0256 89.4816C19.7173 88.4847 20.2291 87.3751 20.5374 86.2014C20.6563 86.2311 20.7784 86.2546 20.9005 86.2718C20.9787 86.2718 21.057 86.2671 21.1352 86.264L52.4946 84.1778C52.6792 84.145 52.8608 84.0949 53.0361 84.0307C53.4242 84.9212 53.9344 85.7538 54.5541 86.5019C54.3992 86.6349 54.2567 86.7836 54.13 86.9432L50.3975 92.8088C49.3661 94.4301 49.8435 96.5788 51.4648 97.6102C53.0846 98.6415 55.2333 98.1642 56.2646 96.5444L59.9971 90.6773C60.0832 90.4988 60.1552 90.3142 60.21 90.1232C63.1866 90.8917 66.351 90.2594 68.8034 88.4049C68.9286 88.5614 69.0663 88.7085 69.2181 88.84L87.7492 101.814L86.505 107.765C86.3172 108.667 86.494 109.607 86.9995 110.379C87.5035 111.15 88.2954 111.689 89.1968 111.877C89.4315 111.927 89.671 111.952 89.912 111.952C91.5568 111.949 92.9747 110.795 93.3127 109.185L93.9465 106.152L118.833 123.573C118.96 123.647 119.091 123.711 119.227 123.767C118.689 125.185 118.389 126.685 118.337 128.201C118.182 128.192 118.027 128.195 117.874 128.207L92.9809 133.527C92.79 133.589 92.6053 133.671 92.4301 133.766C91.5412 132.289 90.2985 131.054 88.8134 130.176C88.9073 129.993 88.9855 129.801 89.0434 129.603L90.466 122.796C90.8572 120.916 89.6522 119.074 87.7711 118.681C85.8915 118.29 84.0511 119.497 83.6583 121.376L82.2357 128.184C82.2138 128.394 82.2122 128.605 82.2326 128.816C79.6284 129.137 77.2449 130.434 75.5626 132.447C75.3654 132.317 75.1572 132.207 74.9397 132.12ZM150.49 154.501C150.64 154.634 150.803 154.753 150.976 154.856C149.651 157.092 149.247 159.756 149.853 162.285C149.67 162.335 149.491 162.399 149.319 162.481L124.808 177.57C124.703 177.656 124.603 177.75 124.509 177.85C123.708 177.087 122.819 176.423 121.861 175.871C121.944 175.728 122.015 175.58 122.076 175.428L124.284 167.917L125.719 163.039C126.261 161.197 125.206 159.265 123.364 158.723C121.522 158.18 119.589 159.235 119.047 161.077L117.087 167.745L115.401 173.464C115.376 173.623 115.362 173.783 115.359 173.944C115.174 173.936 114.999 173.888 114.809 173.888C113.306 173.907 111.814 174.171 110.395 174.67C110.349 174.52 110.291 174.373 110.224 174.231L92.0748 146C91.9496 145.845 91.8103 145.701 91.6585 145.571C92.8432 144.08 93.5913 142.288 93.8198 140.396C94.0264 140.394 94.2314 140.372 94.4333 140.33L119.326 135.01C119.478 134.959 119.625 134.895 119.767 134.819C120.963 137.237 122.836 139.255 125.159 140.626C125.073 140.765 124.996 140.909 124.93 141.061L122.969 147.732C122.71 148.616 122.811 149.568 123.253 150.379C123.696 151.188 124.44 151.789 125.326 152.047C125.644 152.142 125.974 152.191 126.307 152.189C127.849 152.189 129.206 151.174 129.641 149.695L131.602 143.023C131.627 142.864 131.641 142.704 131.644 142.543C131.83 142.551 132.006 142.599 132.193 142.599C134.428 142.583 136.625 142.025 138.596 140.97C138.668 141.117 138.751 141.261 138.843 141.397L150.49 154.501ZM173.943 69.3151C173.799 69.3104 173.656 69.3151 173.514 69.3292L151.994 74.3012C151.811 74.3653 151.634 74.4452 151.465 74.5406C151.147 74.0351 150.787 73.5562 150.388 73.1118C150.529 72.9568 150.656 72.791 150.765 72.6125L171.835 35.2029C171.915 35.0183 171.977 34.8258 172.021 34.6286C172.542 34.7209 173.068 34.7741 173.595 34.7867C173.598 34.9776 173.617 35.1685 173.652 35.3563L180.397 57.3257C180.458 57.4728 180.528 57.6152 180.608 57.7514C176.552 60.21 174.037 64.5732 173.943 69.3151Z" fill="white"/>
<path d="M86.9589 20.1132C87.0465 20.1132 87.1373 20.1101 87.2281 20.1023L107.927 18.5138V15.0364L107.626 11.5699L86.6975 13.1694C86.5097 13.2054 86.3266 13.257 86.1482 13.3243C84.1967 8.77486 79.3155 6.22392 74.4655 7.21926C69.6156 8.21616 66.1351 12.4855 66.1367 17.4355C66.1507 17.9019 66.1977 18.3683 66.2759 18.8284C66.0772 18.8628 65.8816 18.9144 65.6938 18.9833L45.7025 28.9617C45.5711 29.0493 45.4459 29.1464 45.3301 29.2528C41.9779 25.3262 36.7211 23.5891 31.6896 24.744C26.6581 25.899 22.6862 29.7552 21.381 34.7491C20.0774 39.7445 21.658 45.0498 25.4828 48.5179C25.3717 48.6321 25.27 48.7557 25.1777 48.8856L21.8834 55.011C20.9725 56.7012 21.6063 58.8108 23.2981 59.7201C24.9899 60.6293 27.0979 59.9955 28.0072 58.3038L31.303 52.1784C31.3578 52.0328 31.4032 51.8842 31.4376 51.7324C34.0919 52.471 36.9135 52.3364 39.4848 51.3505C39.5365 51.5054 39.5975 51.6557 39.6695 51.8012L42.3957 55.8937C43.4599 57.4915 45.6196 57.9235 47.2175 56.8593C48.8169 55.7935 49.2488 53.6338 48.1831 52.036L45.4584 47.9451C45.3536 47.8214 45.2377 47.7072 45.1141 47.6023C48.1878 44.2939 49.421 39.6772 48.4053 35.278C48.543 35.2561 48.6776 35.2232 48.8122 35.1826L68.8034 25.2042C68.9615 25.1024 69.1101 24.9851 69.2479 24.8567C71.7972 27.4218 75.5141 28.4453 79.0181 27.5454C79.0729 27.7379 79.1449 27.9241 79.2341 28.1025L79.3123 28.2246C79.9305 29.2011 81.0072 29.7927 82.1637 29.7896C83.4517 29.7896 84.6364 29.0838 85.2483 27.9492C85.8618 26.8161 85.8024 25.4373 85.095 24.3606C84.9682 24.201 84.8274 24.0555 84.674 23.924C85.5926 22.7831 86.2578 21.4623 86.6287 20.0459C86.7367 20.0741 86.8478 20.096 86.9589 20.1132Z" fill="white"/>
<path d="M92.1703 80.544L90.7571 87.3501C90.3659 89.2313 91.5725 91.0717 93.452 91.4629C93.6868 91.5083 93.9247 91.5318 94.1641 91.5318C95.8105 91.5302 97.2299 90.3737 97.5648 88.7618L98.978 81.9541C99.255 80.7287 98.8497 79.4485 97.9154 78.6065C96.9827 77.7646 95.6681 77.4923 94.4771 77.8929C93.2861 78.2935 92.4051 79.3061 92.1703 80.5409V80.544Z" fill="white"/>
</g>
<defs>
<clipPath id="clip0">
<rect width="202" height="202" fill="white"/>
</clipPath>
</defs>
</svg>
